<svg width="586" height="832" viewBox="0 0 586 832" fill="none" xmlns="http://www.w3.org/2000/svg">
<g filter="url(#filter0_d_26_2)">
<path d="M427.5 832C334.167 667.082 145 268.996 135 -4H586V832H427.5Z" fill="#7643EE" fill-opacity="0.7" shape-rendering="crispEdges"/>
</g>
<path d="M8.28 187.315C7.23 187.315 6.375 186.895 5.715 186.055C5.085 185.215 4.77 183.655 4.77 181.375C4.77 180.475 4.845 179.35 4.995 178C5.145 176.62 5.34 175.105 5.58 173.455C5.85 171.805 6.12 170.14 6.39 168.46C6.03 168.43 5.655 168.415 5.265 168.415C4.875 168.415 4.47 168.415 4.05 168.415C4.2 167.365 4.425 166.645 4.725 166.255C5.055 165.835 5.775 165.58 6.885 165.49C7.215 163.3 7.5 161.17 7.74 159.1C7.98 157.03 8.1 155.215 8.1 153.655C8.1 153.025 8.025 152.275 7.875 151.405C7.755 150.505 7.605 149.785 7.425 149.245C8.115 148.675 9.12 148.33 10.44 148.21C11.76 148.06 13.065 147.985 14.355 147.985C15.465 147.985 16.59 148 17.73 148.03C18.9 148.06 20.04 148.075 21.15 148.075C22.56 148.075 23.85 148.03 25.02 147.94C26.19 147.82 27.135 147.58 27.855 147.22C27.765 148.57 27.495 149.605 27.045 150.325C26.625 151.015 26.055 151.48 25.335 151.72C24.615 151.96 23.73 152.08 22.68 152.08C21.15 152.08 19.575 151.99 17.955 151.81C16.335 151.6 14.745 151.36 13.185 151.09C13.155 152.74 12.93 154.855 12.51 157.435C12.12 159.985 11.7 162.655 11.25 165.445C12.78 165.415 14.28 165.37 15.75 165.31C17.22 165.22 18.57 165.07 19.8 164.86C21.06 164.65 22.065 164.35 22.815 163.96C22.695 165.58 22.35 166.75 21.78 167.47C21.24 168.19 20.52 168.64 19.62 168.82C18.75 169 17.745 169.09 16.605 169.09C15.675 169.09 14.745 169.045 13.815 168.955C12.885 168.865 11.85 168.775 10.71 168.685C10.41 170.665 10.155 172.6 9.945 174.49C9.735 176.35 9.63 178.03 9.63 179.53C9.63 180.7 9.735 181.825 9.945 182.905C10.155 183.955 10.635 184.885 11.385 185.695C10.815 186.355 10.245 186.79 9.675 187C9.105 187.21 8.64 187.315 8.28 187.315ZM37.8591 149.155C37.8591 149.485 37.8141 149.875 37.7241 150.325C37.6641 150.775 37.5441 151.3 37.3641 151.9C36.2541 152.59 35.2191 152.935 34.2591 152.935C33.3591 152.935 32.7291 152.77 32.3691 152.44C32.0091 152.08 31.8291 151.54 31.8291 150.82C31.8291 150.49 31.8591 150.115 31.9191 149.695C31.9791 149.275 32.0541 148.795 32.1441 148.255C33.2541 147.565 34.2891 147.22 35.2491 147.22C35.9391 147.22 36.5391 147.37 37.0491 147.67C37.5891 147.97 37.8591 148.465 37.8591 149.155ZM33.5841 187.315C32.5341 187.315 31.6791 186.895 31.0191 186.055C30.3891 185.215 30.0741 183.655 30.0741 181.375C30.0741 179.605 30.2241 177.775 30.5241 175.885C30.8541 173.995 31.1691 172.03 31.4691 169.99C31.7991 167.95 31.9641 165.805 31.9641 163.555C31.9641 162.595 31.9191 161.605 31.8291 160.585C31.7391 159.535 31.4691 158.59 31.0191 157.75C31.3491 157.42 31.8291 157.165 32.4591 156.985C33.0891 156.805 33.6141 156.715 34.0341 156.715C34.8141 156.715 35.5041 156.97 36.1041 157.48C36.7341 157.99 37.0491 158.875 37.0491 160.135C37.0491 160.885 36.9441 162.01 36.7341 163.51C36.5241 165.01 36.2841 166.705 36.0141 168.595C35.7441 170.455 35.5041 172.345 35.2941 174.265C35.0841 176.185 34.9791 177.94 34.9791 179.53C34.9791 180.7 35.0691 181.825 35.2491 182.905C35.4591 183.955 35.9391 184.885 36.6891 185.695C36.1191 186.355 35.5491 186.79 34.9791 187C34.4091 187.21 33.9441 187.315 33.5841 187.315ZM47.3555 187.315C46.1555 187.315 45.3755 186.895 45.0155 186.055C44.6555 185.215 44.4755 184.135 44.4755 182.815C44.4755 181.225 44.6105 179.41 44.8805 177.37C45.1805 175.33 45.4655 173.155 45.7355 170.845C46.0355 168.505 46.1855 166.15 46.1855 163.78C46.1855 162.7 46.1405 161.65 46.0505 160.63C45.9605 159.58 45.6905 158.62 45.2405 157.75C45.5705 157.42 46.0355 157.165 46.6355 156.985C47.2655 156.805 47.7905 156.715 48.2105 156.715C49.2305 156.715 49.9955 157.06 50.5055 157.75C51.0455 158.44 51.3155 159.67 51.3155 161.44C51.3155 162.97 51.1805 164.695 50.9105 166.615C50.6405 168.535 50.3405 170.38 50.0105 172.15C50.7905 170.35 51.6005 168.52 52.4405 166.66C53.3105 164.8 54.2255 163.105 55.1855 161.575C56.1455 160.015 57.1355 158.77 58.1555 157.84C59.1755 156.88 60.2255 156.4 61.3055 156.4C64.8155 156.4 66.5705 158.995 66.5705 164.185C66.5705 166.405 66.3905 168.565 66.0305 170.665C65.7005 172.735 65.5355 174.88 65.5355 177.1C65.5355 177.97 65.5805 178.96 65.6705 180.07C65.7905 181.18 65.9855 182.245 66.2555 183.265C66.5555 184.255 66.9755 185.065 67.5155 185.695C66.9755 186.265 66.4355 186.685 65.8955 186.955C65.3855 187.195 64.8755 187.315 64.3655 187.315C63.1355 187.315 62.2055 186.565 61.5755 185.065C60.9455 183.535 60.6305 181.375 60.6305 178.585C60.6305 176.665 60.7505 174.805 60.9905 173.005C61.2605 171.175 61.5155 169.51 61.7555 168.01C61.9955 166.48 62.1155 165.205 62.1155 164.185C62.1155 163.225 61.9355 162.49 61.5755 161.98C61.2155 161.44 60.7055 161.17 60.0455 161.17C59.3555 161.17 58.6055 161.56 57.7955 162.34C56.9855 163.09 56.1755 164.11 55.3655 165.4C54.5855 166.69 53.8355 168.13 53.1155 169.72C52.3955 171.28 51.7505 172.87 51.1805 174.49C50.6405 176.11 50.2055 177.64 49.8755 179.08C49.5455 180.49 49.3805 181.705 49.3805 182.725C49.3805 183.655 49.4555 184.48 49.6055 185.2C49.7855 185.92 49.9655 186.415 50.1455 186.685C49.5755 186.895 49.0655 187.045 48.6155 187.135C48.1655 187.255 47.7455 187.315 47.3555 187.315ZM80.2951 187.63C78.2551 187.63 76.6351 186.625 75.4351 184.615C74.2651 182.605 73.6801 179.845 73.6801 176.335C73.6801 173.515 74.0101 170.89 74.6701 168.46C75.3601 166 76.3051 163.855 77.5051 162.025C78.7051 160.195 80.1001 158.77 81.6901 157.75C83.2801 156.73 85.0051 156.22 86.8651 156.22C89.4151 156.22 91.5301 157.225 93.2101 159.235C93.4501 158.305 93.7501 157.645 94.1101 157.255C94.5001 156.865 95.0251 156.67 95.6851 156.67C96.6151 156.67 97.4251 157.06 98.1151 157.84C97.8451 158.56 97.5901 159.565 97.3501 160.855C97.1101 162.115 96.9001 163.54 96.7201 165.13C96.5401 166.69 96.3901 168.325 96.2701 170.035C96.1801 171.715 96.1351 173.335 96.1351 174.895C96.1351 177.595 96.2851 179.755 96.5851 181.375C96.9151 182.965 97.4551 184.39 98.2051 185.65C97.3351 186.76 96.3151 187.315 95.1451 187.315C93.8851 187.315 92.9251 186.505 92.2651 184.885C91.6051 183.265 91.2751 180.91 91.2751 177.82C91.2751 177.37 91.2901 176.83 91.3201 176.2C91.3801 175.54 91.4401 174.88 91.5001 174.22C91.5601 173.53 91.6051 172.945 91.6351 172.465C90.6151 175.345 89.4301 177.94 88.0801 180.25C86.7601 182.53 85.4101 184.33 84.0301 185.65C82.6801 186.97 81.4351 187.63 80.2951 187.63ZM81.8251 182.86C82.5151 182.86 83.2951 182.41 84.1651 181.51C85.0351 180.58 85.9351 179.35 86.8651 177.82C87.8251 176.29 88.7101 174.595 89.5201 172.735C90.3601 170.875 91.0801 168.985 91.6801 167.065C92.2801 165.145 92.6701 163.345 92.8501 161.665C90.8101 160.105 88.8751 159.325 87.0451 159.325C85.3651 159.325 83.8651 160 82.5451 161.35C81.2551 162.7 80.2351 164.575 79.4851 166.975C78.7651 169.345 78.4051 172.09 78.4051 175.21C78.4051 177.58 78.7051 179.455 79.3051 180.835C79.9351 182.185 80.7751 182.86 81.8251 182.86ZM108.264 187.315C107.064 187.315 106.284 186.895 105.924 186.055C105.564 185.215 105.384 184.135 105.384 182.815C105.384 181.225 105.519 179.41 105.789 177.37C106.089 175.33 106.374 173.155 106.644 170.845C106.944 168.505 107.094 166.15 107.094 163.78C107.094 162.7 107.049 161.65 106.959 160.63C106.869 159.58 106.599 158.62 106.149 157.75C106.479 157.42 106.944 157.165 107.544 156.985C108.174 156.805 108.699 156.715 109.119 156.715C110.139 156.715 110.904 157.06 111.414 157.75C111.954 158.44 112.224 159.67 112.224 161.44C112.224 162.97 112.089 164.695 111.819 166.615C111.549 168.535 111.249 170.38 110.919 172.15C111.699 170.35 112.509 168.52 113.349 166.66C114.219 164.8 115.134 163.105 116.094 161.575C117.054 160.015 118.044 158.77 119.064 157.84C120.084 156.88 121.134 156.4 122.214 156.4C125.724 156.4 127.479 158.995 127.479 164.185C127.479 166.405 127.299 168.565 126.939 170.665C126.609 172.735 126.444 174.88 126.444 177.1C126.444 177.97 126.489 178.96 126.579 180.07C126.699 181.18 126.894 182.245 127.164 183.265C127.464 184.255 127.884 185.065 128.424 185.695C127.884 186.265 127.344 186.685 126.804 186.955C126.294 187.195 125.784 187.315 125.274 187.315C124.044 187.315 123.114 186.565 122.484 185.065C121.854 183.535 121.539 181.375 121.539 178.585C121.539 176.665 121.659 174.805 121.899 173.005C122.169 171.175 122.424 169.51 122.664 168.01C122.904 166.48 123.024 165.205 123.024 164.185C123.024 163.225 122.844 162.49 122.484 161.98C122.124 161.44 121.614 161.17 120.954 161.17C120.264 161.17 119.514 161.56 118.704 162.34C117.894 163.09 117.084 164.11 116.274 165.4C115.494 166.69 114.744 168.13 114.024 169.72C113.304 171.28 112.659 172.87 112.089 174.49C111.549 176.11 111.114 177.64 110.784 179.08C110.454 180.49 110.289 181.705 110.289 182.725C110.289 183.655 110.364 184.48 110.514 185.2C110.694 185.92 110.874 186.415 111.054 186.685C110.484 186.895 109.974 187.045 109.524 187.135C109.074 187.255 108.654 187.315 108.264 187.315ZM145.568 187.765C143.018 187.765 140.933 187.21 139.313 186.1C137.693 184.99 136.493 183.49 135.713 181.6C134.963 179.71 134.588 177.625 134.588 175.345C134.588 173.605 134.798 171.85 135.218 170.08C135.668 168.28 136.298 166.555 137.108 164.905C137.918 163.255 138.923 161.785 140.123 160.495C141.323 159.175 142.673 158.14 144.173 157.39C145.703 156.61 147.383 156.22 149.213 156.22C150.983 156.22 152.468 156.505 153.668 157.075C154.868 157.615 155.468 158.545 155.468 159.865C155.468 160.915 155.228 161.785 154.748 162.475C154.298 163.165 153.863 163.675 153.443 164.005C152.783 162.715 151.973 161.665 151.013 160.855C150.083 160.015 148.778 159.595 147.098 159.595C145.808 159.595 144.713 159.955 143.813 160.675C142.943 161.365 142.223 162.28 141.653 163.42C141.083 164.53 140.633 165.73 140.303 167.02C139.973 168.31 139.748 169.555 139.628 170.755C139.508 171.955 139.448 172.96 139.448 173.77C139.448 177.28 140.048 179.935 141.248 181.735C142.478 183.535 144.203 184.435 146.423 184.435C149.243 184.435 151.313 182.92 152.633 179.89C152.963 180.22 153.203 180.625 153.353 181.105C153.503 181.555 153.578 181.99 153.578 182.41C153.578 183.34 153.308 184.15 152.768 184.84C152.258 185.5 151.583 186.055 150.743 186.505C149.933 186.925 149.063 187.24 148.133 187.45C147.233 187.66 146.378 187.765 145.568 187.765ZM454.9 176.11C454.48 176.11 454.105 175.975 453.775 175.705C453.475 175.405 453.325 174.925 453.325 174.265C453.325 174.025 453.385 173.35 453.505 172.24C453.625 171.13 453.775 169.78 453.955 168.19C454.165 166.57 454.36 164.89 454.54 163.15C454.75 161.38 454.915 159.7 455.035 158.11C455.155 156.52 455.215 155.215 455.215 154.195C455.215 153.115 455.17 152.065 455.08 151.045C454.99 149.995 454.705 149.02 454.225 148.12C454.555 147.82 455.05 147.58 455.71 147.4C456.37 147.19 456.925 147.085 457.375 147.085C458.425 147.085 459.22 147.445 459.76 148.165C460.33 148.855 460.615 150.085 460.615 151.855C460.615 152.755 460.48 153.97 460.21 155.5C459.97 157.03 459.67 158.725 459.31 160.585C458.95 162.415 458.59 164.245 458.23 166.075C457.87 167.875 457.555 169.525 457.285 171.025C457.045 172.525 456.925 173.695 456.925 174.535C456.925 174.835 456.97 175.12 457.06 175.39C456.7 175.69 456.34 175.885 455.98 175.975C455.65 176.065 455.29 176.11 454.9 176.11ZM453.46 187.63C452.44 187.63 451.705 187.42 451.255 187C450.835 186.61 450.625 185.995 450.625 185.155C450.625 184.795 450.655 184.375 450.715 183.895C450.775 183.385 450.865 182.83 450.985 182.23C452.305 181.42 453.505 181.015 454.585 181.015C455.395 181.015 456.085 181.195 456.655 181.555C457.255 181.885 457.555 182.455 457.555 183.265C457.555 184.075 457.375 185.11 457.015 186.37C455.695 187.21 454.51 187.63 453.46 187.63Z" fill="#3375E0"/>
<path d="M169.519 187.765C166.969 187.765 164.884 187.21 163.264 186.1C161.644 184.99 160.444 183.49 159.664 181.6C158.914 179.71 158.539 177.625 158.539 175.345C158.539 173.605 158.749 171.85 159.169 170.08C159.619 168.28 160.249 166.555 161.059 164.905C161.869 163.255 162.874 161.785 164.074 160.495C165.274 159.175 166.624 158.14 168.124 157.39C169.654 156.61 171.334 156.22 173.164 156.22C175.564 156.22 177.334 156.82 178.474 158.02C179.614 159.22 180.184 160.66 180.184 162.34C180.184 163.66 179.854 165.025 179.194 166.435C178.564 167.815 177.619 169.105 176.359 170.305C175.129 171.505 173.629 172.48 171.859 173.23C170.089 173.98 168.079 174.355 165.829 174.355C165.019 174.355 164.209 174.31 163.399 174.22C163.459 177.58 164.089 180.13 165.289 181.87C166.489 183.58 168.184 184.435 170.374 184.435C171.874 184.435 173.194 184.075 174.334 183.355C175.474 182.605 176.404 181.45 177.124 179.89C177.484 180.22 177.754 180.625 177.934 181.105C178.114 181.555 178.204 181.99 178.204 182.41C178.204 183.34 177.919 184.15 177.349 184.84C176.779 185.5 176.044 186.055 175.144 186.505C174.274 186.925 173.329 187.24 172.309 187.45C171.319 187.66 170.389 187.765 169.519 187.765ZM165.514 171.475C167.704 171.475 169.534 171.085 171.004 170.305C172.474 169.525 173.584 168.55 174.334 167.38C175.084 166.18 175.459 164.995 175.459 163.825C175.459 162.655 175.099 161.665 174.379 160.855C173.659 160.015 172.549 159.595 171.049 159.595C169.699 159.595 168.559 159.985 167.629 160.765C166.729 161.515 165.994 162.505 165.424 163.735C164.854 164.935 164.419 166.21 164.119 167.56C163.819 168.91 163.609 170.17 163.489 171.34C164.209 171.43 164.884 171.475 165.514 171.475ZM204.394 187.315C203.464 187.315 202.684 186.895 202.054 186.055C201.424 185.215 201.109 183.655 201.109 181.375C201.109 180.295 201.214 178.915 201.424 177.235C201.634 175.525 201.904 173.65 202.234 171.61C202.564 169.57 202.879 167.5 203.179 165.4C203.509 163.27 203.779 161.23 203.989 159.28C204.199 157.33 204.304 155.605 204.304 154.105C204.304 153.025 204.259 151.975 204.169 150.955C204.079 149.905 203.809 148.93 203.359 148.03C203.659 147.73 204.064 147.49 204.574 147.31C205.084 147.1 205.654 146.995 206.284 146.995C207.724 147.025 208.969 147.4 210.019 148.12C211.069 148.84 211.924 150.31 212.584 152.53C213.154 154.33 213.634 156.235 214.024 158.245C214.444 160.255 214.909 162.415 215.419 164.725C215.929 167.005 216.589 169.48 217.399 172.15C217.939 170.68 218.614 169.06 219.424 167.29C220.264 165.49 221.134 163.66 222.034 161.8C222.934 159.91 223.774 158.095 224.554 156.355C225.334 154.615 225.964 153.04 226.444 151.63C226.954 150.22 227.209 149.095 227.209 148.255C227.539 147.955 228.064 147.67 228.784 147.4C229.504 147.13 230.359 146.995 231.349 146.995C232.339 146.995 233.089 147.355 233.599 148.075C234.139 148.765 234.409 149.995 234.409 151.765C234.409 152.875 234.289 154.27 234.049 155.95C233.809 157.63 233.524 159.49 233.194 161.53C232.864 163.54 232.519 165.61 232.159 167.74C231.829 169.87 231.544 171.955 231.304 173.995C231.064 176.005 230.944 177.85 230.944 179.53C230.944 180.7 231.049 181.825 231.259 182.905C231.469 183.955 231.934 184.885 232.654 185.695C232.084 186.355 231.514 186.79 230.944 187C230.404 187.21 229.939 187.315 229.549 187.315C228.499 187.315 227.644 186.895 226.984 186.055C226.354 185.215 226.039 183.655 226.039 181.375C226.039 180.295 226.144 178.9 226.354 177.19C226.594 175.48 226.864 173.605 227.164 171.565C227.494 169.525 227.809 167.44 228.109 165.31C228.439 163.18 228.709 161.11 228.919 159.1C229.159 157.09 229.279 155.29 229.279 153.7C228.319 155.65 227.329 157.66 226.309 159.73C225.289 161.77 224.359 163.72 223.519 165.58C222.679 167.44 222.019 169.105 221.539 170.575C221.239 171.445 220.969 172.3 220.729 173.14C220.519 173.98 220.414 174.79 220.414 175.57C220.414 175.75 220.414 175.93 220.414 176.11C220.444 176.29 220.474 176.47 220.504 176.65C220.294 176.92 219.889 177.16 219.289 177.37C218.689 177.58 218.059 177.685 217.399 177.685C216.559 177.685 215.839 177.535 215.239 177.235C214.669 176.905 214.144 176.245 213.664 175.255C213.214 174.265 212.734 172.75 212.224 170.71C211.804 169 211.444 167.485 211.144 166.165C210.844 164.845 210.559 163.615 210.289 162.475C210.049 161.305 209.779 160.12 209.479 158.92C209.179 157.69 208.819 156.31 208.399 154.78C208.219 156.4 207.949 158.26 207.589 160.36C207.229 162.46 206.854 164.65 206.464 166.93C206.104 169.21 205.789 171.445 205.519 173.635C205.249 175.795 205.114 177.76 205.114 179.53C205.114 180.7 205.219 181.825 205.429 182.905C205.639 183.955 206.119 184.885 206.869 185.695C206.629 186.355 206.254 186.79 205.744 187C205.234 187.21 204.784 187.315 204.394 187.315ZM246.233 187.63C244.193 187.63 242.573 186.625 241.373 184.615C240.203 182.605 239.618 179.845 239.618 176.335C239.618 173.515 239.948 170.89 240.608 168.46C241.298 166 242.243 163.855 243.443 162.025C244.643 160.195 246.038 158.77 247.628 157.75C249.218 156.73 250.943 156.22 252.803 156.22C255.353 156.22 257.468 157.225 259.148 159.235C259.388 158.305 259.688 157.645 260.048 157.255C260.438 156.865 260.963 156.67 261.623 156.67C262.553 156.67 263.363 157.06 264.053 157.84C263.783 158.56 263.528 159.565 263.288 160.855C263.048 162.115 262.838 163.54 262.658 165.13C262.478 166.69 262.328 168.325 262.208 170.035C262.118 171.715 262.073 173.335 262.073 174.895C262.073 177.595 262.223 179.755 262.523 181.375C262.853 182.965 263.393 184.39 264.143 185.65C263.273 186.76 262.253 187.315 261.083 187.315C259.823 187.315 258.863 186.505 258.203 184.885C257.543 183.265 257.213 180.91 257.213 177.82C257.213 177.37 257.228 176.83 257.258 176.2C257.318 175.54 257.378 174.88 257.438 174.22C257.498 173.53 257.543 172.945 257.573 172.465C256.553 175.345 255.368 177.94 254.018 180.25C252.698 182.53 251.348 184.33 249.968 185.65C248.618 186.97 247.373 187.63 246.233 187.63ZM247.763 182.86C248.453 182.86 249.233 182.41 250.103 181.51C250.973 180.58 251.873 179.35 252.803 177.82C253.763 176.29 254.648 174.595 255.458 172.735C256.298 170.875 257.018 168.985 257.618 167.065C258.218 165.145 258.608 163.345 258.788 161.665C256.748 160.105 254.813 159.325 252.983 159.325C251.303 159.325 249.803 160 248.483 161.35C247.193 162.7 246.173 164.575 245.423 166.975C244.703 169.345 244.343 172.09 244.343 175.21C244.343 177.58 244.643 179.455 245.243 180.835C245.873 182.185 246.713 182.86 247.763 182.86ZM277.126 187.63C275.956 187.63 274.861 187.255 273.841 186.505C272.851 185.725 272.041 184.51 271.411 182.86C270.811 181.18 270.511 179.005 270.511 176.335C270.511 174.535 270.676 172.69 271.006 170.8C271.366 168.91 271.891 167.095 272.581 165.355C273.271 163.615 274.141 162.07 275.191 160.72C276.241 159.34 277.471 158.245 278.881 157.435C280.321 156.625 281.926 156.22 283.696 156.22C285.106 156.22 286.336 156.505 287.386 157.075C288.436 157.645 289.321 158.365 290.041 159.235C290.101 158.635 290.146 157.945 290.176 157.165C290.206 156.355 290.221 155.53 290.221 154.69C290.221 153.49 290.191 152.305 290.131 151.135C290.071 149.935 289.966 148.87 289.816 147.94C289.666 146.98 289.471 146.275 289.231 145.825C289.561 145.525 290.026 145.285 290.626 145.105C291.256 144.925 291.796 144.835 292.246 144.835C293.296 144.835 294.076 145.195 294.586 145.915C295.126 146.635 295.396 147.94 295.396 149.83C295.396 151.24 295.261 152.875 294.991 154.735C294.751 156.565 294.466 158.56 294.136 160.72C293.806 162.88 293.506 165.115 293.236 167.425C292.996 169.735 292.876 172.06 292.876 174.4C292.876 176.95 293.011 179.11 293.281 180.88C293.581 182.62 294.151 184.21 294.991 185.65C294.541 186.22 294.046 186.64 293.506 186.91C292.996 187.18 292.471 187.315 291.931 187.315C290.611 187.315 289.636 186.475 289.006 184.795C288.406 183.085 288.106 180.73 288.106 177.73C288.106 176.71 288.136 175.78 288.196 174.94C288.286 174.1 288.376 173.275 288.466 172.465C287.416 175.435 286.216 178.06 284.866 180.34C283.546 182.62 282.196 184.405 280.816 185.695C279.466 186.985 278.236 187.63 277.126 187.63ZM278.656 182.86C279.316 182.86 280.081 182.41 280.951 181.51C281.851 180.58 282.766 179.365 283.696 177.865C284.626 176.335 285.511 174.64 286.351 172.78C287.191 170.92 287.911 169.03 288.511 167.11C289.111 165.16 289.501 163.345 289.681 161.665C288.601 160.855 287.581 160.27 286.621 159.91C285.661 159.52 284.746 159.325 283.876 159.325C282.526 159.325 281.311 159.745 280.231 160.585C279.151 161.425 278.236 162.58 277.486 164.05C276.766 165.49 276.211 167.17 275.821 169.09C275.431 171.01 275.236 173.05 275.236 175.21C275.236 176.62 275.356 177.91 275.596 179.08C275.836 180.22 276.211 181.135 276.721 181.825C277.231 182.515 277.876 182.86 278.656 182.86ZM312.736 187.765C310.186 187.765 308.101 187.21 306.481 186.1C304.861 184.99 303.661 183.49 302.881 181.6C302.131 179.71 301.756 177.625 301.756 175.345C301.756 173.605 301.966 171.85 302.386 170.08C302.836 168.28 303.466 166.555 304.276 164.905C305.086 163.255 306.091 161.785 307.291 160.495C308.491 159.175 309.841 158.14 311.341 157.39C312.871 156.61 314.551 156.22 316.381 156.22C318.781 156.22 320.551 156.82 321.691 158.02C322.831 159.22 323.401 160.66 323.401 162.34C323.401 163.66 323.071 165.025 322.411 166.435C321.781 167.815 320.836 169.105 319.576 170.305C318.346 171.505 316.846 172.48 315.076 173.23C313.306 173.98 311.296 174.355 309.046 174.355C308.236 174.355 307.426 174.31 306.616 174.22C306.676 177.58 307.306 180.13 308.506 181.87C309.706 183.58 311.401 184.435 313.591 184.435C315.091 184.435 316.411 184.075 317.551 183.355C318.691 182.605 319.621 181.45 320.341 179.89C320.701 180.22 320.971 180.625 321.151 181.105C321.331 181.555 321.421 181.99 321.421 182.41C321.421 183.34 321.136 184.15 320.566 184.84C319.996 185.5 319.261 186.055 318.361 186.505C317.491 186.925 316.546 187.24 315.526 187.45C314.536 187.66 313.606 187.765 312.736 187.765ZM308.731 171.475C310.921 171.475 312.751 171.085 314.221 170.305C315.691 169.525 316.801 168.55 317.551 167.38C318.301 166.18 318.676 164.995 318.676 163.825C318.676 162.655 318.316 161.665 317.596 160.855C316.876 160.015 315.766 159.595 314.266 159.595C312.916 159.595 311.776 159.985 310.846 160.765C309.946 161.515 309.211 162.505 308.641 163.735C308.071 164.935 307.636 166.21 307.336 167.56C307.036 168.91 306.826 170.17 306.706 171.34C307.426 171.43 308.101 171.475 308.731 171.475ZM358.997 187.45C358.337 187.45 357.482 187.405 356.432 187.315C355.412 187.225 354.332 187.105 353.192 186.955C352.052 186.805 350.957 186.655 349.907 186.505C349.457 186.805 349.022 187.015 348.602 187.135C348.182 187.285 347.807 187.36 347.477 187.36C346.517 187.36 345.737 187.03 345.137 186.37C344.537 185.68 344.237 184.555 344.237 182.995C344.237 181.345 344.447 179.23 344.867 176.65C345.317 174.04 345.782 171.31 346.262 168.46C345.902 168.43 345.527 168.415 345.137 168.415C344.777 168.415 344.387 168.415 343.967 168.415C344.117 167.365 344.342 166.645 344.642 166.255C344.972 165.835 345.677 165.58 346.757 165.49C347.087 163.36 347.372 161.275 347.612 159.235C347.882 157.195 348.017 155.335 348.017 153.655C348.017 153.025 347.942 152.275 347.792 151.405C347.672 150.505 347.522 149.785 347.342 149.245C348.032 148.675 349.037 148.33 350.357 148.21C351.707 148.06 353.042 147.985 354.362 147.985C355.532 147.985 356.732 148 357.962 148.03C359.222 148.06 360.452 148.075 361.652 148.075C363.152 148.075 364.532 148.03 365.792 147.94C367.082 147.82 368.102 147.58 368.852 147.22C368.762 148.57 368.507 149.605 368.087 150.325C367.667 151.015 367.082 151.48 366.332 151.72C365.612 151.96 364.727 152.08 363.677 152.08C361.997 152.08 360.242 151.99 358.412 151.81C356.612 151.6 354.842 151.36 353.102 151.09C353.102 152.11 353.012 153.385 352.832 154.915C352.652 156.415 352.412 158.08 352.112 159.91C351.842 161.71 351.542 163.555 351.212 165.445C352.742 165.415 354.242 165.37 355.712 165.31C357.182 165.22 358.532 165.07 359.762 164.86C360.992 164.65 361.982 164.35 362.732 163.96C362.612 165.58 362.267 166.75 361.697 167.47C361.157 168.19 360.437 168.64 359.537 168.82C358.667 169 357.662 169.09 356.522 169.09C355.592 169.09 354.662 169.045 353.732 168.955C352.802 168.865 351.782 168.775 350.672 168.685C350.282 171.145 349.952 173.53 349.682 175.84C349.412 178.15 349.277 180.19 349.277 181.96C349.277 182.17 349.277 182.395 349.277 182.635C349.277 182.845 349.292 183.055 349.322 183.265C350.252 183.295 351.242 183.34 352.292 183.4C353.342 183.43 354.422 183.445 355.532 183.445C357.872 183.445 360.032 183.37 362.012 183.22C363.992 183.04 365.402 182.725 366.242 182.275C366.122 183.925 365.762 185.11 365.162 185.83C364.592 186.55 363.782 187 362.732 187.18C361.712 187.36 360.467 187.45 358.997 187.45ZM376.662 187.63C374.622 187.63 373.002 186.625 371.802 184.615C370.632 182.605 370.047 179.845 370.047 176.335C370.047 173.515 370.377 170.89 371.037 168.46C371.727 166 372.672 163.855 373.872 162.025C375.072 160.195 376.467 158.77 378.057 157.75C379.647 156.73 381.372 156.22 383.232 156.22C385.782 156.22 387.897 157.225 389.577 159.235C389.817 158.305 390.117 157.645 390.477 157.255C390.867 156.865 391.392 156.67 392.052 156.67C392.982 156.67 393.792 157.06 394.482 157.84C394.212 158.56 393.957 159.565 393.717 160.855C393.477 162.115 393.267 163.54 393.087 165.13C392.907 166.69 392.757 168.325 392.637 170.035C392.547 171.715 392.502 173.335 392.502 174.895C392.502 177.595 392.652 179.755 392.952 181.375C393.282 182.965 393.822 184.39 394.572 185.65C393.702 186.76 392.682 187.315 391.512 187.315C390.252 187.315 389.292 186.505 388.632 184.885C387.972 183.265 387.642 180.91 387.642 177.82C387.642 177.37 387.657 176.83 387.687 176.2C387.747 175.54 387.807 174.88 387.867 174.22C387.927 173.53 387.972 172.945 388.002 172.465C386.982 175.345 385.797 177.94 384.447 180.25C383.127 182.53 381.777 184.33 380.397 185.65C379.047 186.97 377.802 187.63 376.662 187.63ZM378.192 182.86C378.882 182.86 379.662 182.41 380.532 181.51C381.402 180.58 382.302 179.35 383.232 177.82C384.192 176.29 385.077 174.595 385.887 172.735C386.727 170.875 387.447 168.985 388.047 167.065C388.647 165.145 389.037 163.345 389.217 161.665C387.177 160.105 385.242 159.325 383.412 159.325C381.732 159.325 380.232 160 378.912 161.35C377.622 162.7 376.602 164.575 375.852 166.975C375.132 169.345 374.772 172.09 374.772 175.21C374.772 177.58 375.072 179.455 375.672 180.835C376.302 182.185 377.142 182.86 378.192 182.86ZM408.186 187.585C406.686 187.585 405.291 187.39 404.001 187C402.741 186.61 401.721 186.025 400.941 185.245C400.161 184.435 399.771 183.43 399.771 182.23C399.771 181.39 399.981 180.655 400.401 180.025C400.851 179.395 401.361 178.795 401.931 178.225C402.321 179.755 402.891 181 403.641 181.96C404.421 182.89 405.276 183.58 406.206 184.03C407.166 184.45 408.111 184.66 409.041 184.66C410.361 184.66 411.501 184.315 412.461 183.625C413.421 182.905 413.901 181.945 413.901 180.745C413.901 179.605 413.601 178.615 413.001 177.775C412.401 176.905 411.516 176.005 410.346 175.075C409.176 174.115 407.736 172.96 406.026 171.61C404.916 170.74 404.016 169.735 403.326 168.595C402.636 167.455 402.291 166.045 402.291 164.365C402.291 161.755 403.221 159.745 405.081 158.335C406.971 156.925 409.521 156.22 412.731 156.22C414.501 156.22 415.956 156.52 417.096 157.12C418.236 157.72 418.806 158.815 418.806 160.405C418.806 161.185 418.566 161.905 418.086 162.565C417.606 163.195 417.156 163.675 416.736 164.005C416.226 162.715 415.491 161.62 414.531 160.72C413.601 159.82 412.296 159.37 410.616 159.37C409.326 159.37 408.306 159.7 407.556 160.36C406.836 161.02 406.476 161.83 406.476 162.79C406.476 163.51 406.596 164.155 406.836 164.725C407.076 165.295 407.496 165.895 408.096 166.525C408.726 167.125 409.566 167.86 410.616 168.73C411.666 169.6 413.001 170.695 414.621 172.015C415.761 172.945 416.646 173.965 417.276 175.075C417.906 176.155 418.221 177.445 418.221 178.945C418.221 181.495 417.366 183.58 415.656 185.2C413.946 186.79 411.456 187.585 408.186 187.585ZM423.559 198.43C422.599 198.43 421.639 198.325 420.679 198.115C419.719 197.905 418.924 197.485 418.294 196.855C417.664 196.255 417.349 195.385 417.349 194.245C417.349 193.345 417.529 192.595 417.889 191.995C418.219 191.395 418.519 190.945 418.789 190.645C419.179 191.935 419.794 192.925 420.634 193.615C421.444 194.305 422.614 194.65 424.144 194.65C425.884 194.65 427.519 193.855 429.049 192.265C430.609 190.675 432.019 188.59 433.279 186.01C432.349 186.01 431.689 185.83 431.299 185.47C430.909 185.11 430.639 184.63 430.489 184.03C429.979 181.9 429.439 179.71 428.869 177.46C428.329 175.21 427.759 173.035 427.159 170.935C426.559 168.835 425.929 166.96 425.269 165.31C424.639 163.63 423.979 162.31 423.289 161.35C422.599 160.36 421.894 159.85 421.174 159.82C421.564 158.68 422.134 157.9 422.884 157.48C423.664 157.06 424.324 156.85 424.864 156.85C425.644 156.85 426.439 157.195 427.249 157.885C428.059 158.575 428.794 159.775 429.454 161.485C429.664 161.995 429.919 162.835 430.219 164.005C430.549 165.175 430.894 166.54 431.254 168.1C431.644 169.63 432.049 171.265 432.469 173.005C432.889 174.745 433.294 176.455 433.684 178.135C434.074 179.815 434.419 181.36 434.719 182.77C435.559 180.7 436.309 178.6 436.969 176.47C437.629 174.34 438.184 172.285 438.634 170.305C439.084 168.325 439.429 166.525 439.669 164.905C439.909 163.255 440.029 161.89 440.029 160.81C440.029 159.94 439.864 159.22 439.534 158.65C439.954 157.99 440.494 157.555 441.154 157.345C441.814 157.105 442.339 156.985 442.729 156.985C443.359 156.985 443.854 157.165 444.214 157.525C444.604 157.855 444.799 158.44 444.799 159.28C444.799 159.67 444.679 160.525 444.439 161.845C444.199 163.165 443.839 164.8 443.359 166.75C442.909 168.67 442.324 170.785 441.604 173.095C440.914 175.375 440.119 177.7 439.219 180.07C438.319 182.44 437.314 184.72 436.204 186.91C435.094 189.1 433.879 191.05 432.559 192.76C431.239 194.5 429.829 195.88 428.329 196.9C426.829 197.92 425.239 198.43 423.559 198.43Z" fill="white"/>
<defs>
<filter id="filter0_d_26_2" x="131" y="-4" width="459" height="844" filterUnits="userSpaceOnUse" color-interpolation-filters="sRGB">
<feFlood flood-opacity="0" result="BackgroundImageFix"/>
<feColorMatrix in="SourceAlpha" type="matrix" values="0 0 0 0 0 0 0 0 0 0 0 0 0 0 0 0 0 0 127 0" result="hardAlpha"/>
<feOffset dy="4"/>
<feGaussianBlur stdDeviation="2"/>
<feComposite in2="hardAlpha" operator="out"/>
<feColorMatrix type="matrix" values="0 0 0 0 0 0 0 0 0 0 0 0 0 0 0 0 0 0 0.25 0"/>
<feBlend mode="normal" in2="BackgroundImageFix" result="effect1_dropShadow_26_2"/>
<feBlend mode="normal" in="SourceGraphic" in2="effect1_dropShadow_26_2" result="shape"/>
</filter>
</defs>
</svg>
